<?xml version="1.0" encoding="UTF-8" standalone="no"?><!-- Generator: Gravit.io --><svg xmlns="http://www.w3.org/2000/svg" xmlns:xlink="http://www.w3.org/1999/xlink" style="isolation:isolate" viewBox="0 0 100 100" width="100pt" height="100pt"><defs><clipPath id="_clipPath_6tTgJWdHhgKZOameljmca9u6R2aZtMCf"><rect width="100" height="100"/></clipPath></defs><g clip-path="url(#_clipPath_6tTgJWdHhgKZOameljmca9u6R2aZtMCf)"><defs><filter id="s6Dm5nMdjaVls6V0IJh0gJ2nnwsU5jbP" x="-200%" y="-200%" width="400%" height="400%" filterUnits="objectBoundingBox" color-interpolation-filters="sRGB"><feGaussianBlur xmlns="http://www.w3.org/2000/svg" stdDeviation="0"/></filter></defs><g filter="url(#s6Dm5nMdjaVls6V0IJh0gJ2nnwsU5jbP)"><path d="M 20.037 11.23 L 79.963 11.23 C 82.881 11.23 85.25 13.599 85.25 16.518 L 85.25 83.493 C 85.25 86.411 82.881 88.78 79.963 88.78 L 20.037 88.78 C 17.119 88.78 14.75 86.411 14.75 83.493 L 14.75 16.518 C 14.75 13.599 17.119 11.23 20.037 11.23 Z" style="stroke:none;fill:#ABCAD9;stroke-miterlimit:10;"/></g><path d="M 19.902 20.04 L 80.109 20.04 C 81.003 20.04 81.73 20.767 81.73 21.662 L 81.73 58.958 C 81.73 59.853 81.003 60.58 80.109 60.58 L 19.902 60.58 C 19.007 60.58 18.28 59.853 18.28 58.958 L 18.28 21.662 C 18.28 20.767 19.007 20.04 19.902 20.04 Z" style="stroke:none;fill:#263740;stroke-miterlimit:10;"/><path d="M 65.762 75.27 L 77.738 75.27 C 79.941 75.27 81.73 77.058 81.73 79.26 L 81.73 79.26 C 81.73 81.462 79.941 83.25 77.738 83.25 L 65.762 83.25 C 63.559 83.25 61.77 81.462 61.77 79.26 L 61.77 79.26 C 61.77 77.058 63.559 75.27 65.762 75.27 Z" style="stroke:none;fill:#8C7961;stroke-miterlimit:10;"/><path d="M 22.27 75.27 L 34.24 75.27 C 36.442 75.27 38.23 77.058 38.23 79.26 L 38.23 79.26 C 38.23 81.462 36.442 83.25 34.24 83.25 L 22.27 83.25 C 20.068 83.25 18.28 81.462 18.28 79.26 L 18.28 79.26 C 18.28 77.058 20.068 75.27 22.27 75.27 Z" style="stroke:none;fill:#8C7961;stroke-miterlimit:10;"/></g></svg>